#tb 0: 1/25
#media_type 0: video
#codec_id 0: rawvideo
#dimensions 0: 176x144
#sar 0: 0/1
0,          0,          0,        1,    38016, 0xee831fe4
0,          1,          1,        1,    38016, 0x1098ff23
0,          2,          2,        1,    38016, 0x8fc3e078
0,          3,          3,        1,    38016, 0x86530991
0,          4,          4,        1,    38016, 0xdc8e279e
0,          5,          5,        1,    38016, 0x54ea3234
0,          6,          6,        1,    38016, 0x79014662
0,          7,          7,        1,    38016, 0x5d0a5a88
0,          8,          8,        1,    38016, 0xf712805d
0,          9,          9,        1,    38016, 0x0a09937e
0,         10,         10,        1,    38016, 0xfa62a1d7
0,         11,         11,        1,    38016, 0x67c6a41b
0,         12,         12,        1,    38016, 0x6452ab94
0,         13,         13,        1,    38016, 0xdb269049
0,         14,         14,        1,    38016, 0xc7ab8864
0,         15,         15,        1,    38016, 0xbb828f4a
0,         16,         16,        1,    38016, 0x4fb3a61a
